<?xml version="1.0" standalone="no"?>
<!DOCTYPE svg PUBLIC "-//W3C//DTD SVG 20010904//EN"
 "http://www.w3.org/TR/2001/REC-SVG-20010904/DTD/svg10.dtd">
<svg version="1.0" xmlns="http://www.w3.org/2000/svg"
 width="351.000000pt" height="351.000000pt" viewBox="0 0 351.000000 351.000000"
 preserveAspectRatio="xMidYMid meet">

<g transform="translate(0.000000,351.000000) scale(0.100000,-0.100000)"
fill="#000000" stroke="none">
<path d="M1764 3127 c-88 -67 -175 -133 -192 -148 l-33 -25 48 -34 c26 -19 99
-72 161 -117 62 -46 119 -86 127 -89 12 -5 387 266 392 284 2 6 -330 252 -339
252 -1 0 -75 -55 -164 -123z"/>
<path d="M2505 2858 c-44 -33 -165 -123 -270 -201 -562 -417 -686 -510 -683
-517 4 -10 316 -240 335 -247 7 -3 236 162 529 381 412 310 513 390 504 401
-12 15 -316 239 -328 242 -4 1 -43 -26 -87 -59z"/>
<path d="M272 2511 c-94 -69 -171 -129 -172 -134 0 -4 89 -73 198 -154 108
-81 347 -258 530 -395 658 -492 998 -744 1029 -766 l31 -22 744 560 c408 308
751 566 761 573 15 11 18 32 20 181 l2 170 -55 42 c-30 24 -58 43 -62 44 -4 0
-161 -116 -350 -257 -744 -557 -1053 -788 -1060 -791 -4 -2 -278 201 -610 450
-332 249 -655 492 -719 539 l-115 86 -172 -126z"/>
<path d="M265 1659 c-88 -66 -166 -126 -173 -133 -11 -11 9 -30 115 -107 111
-81 1200 -890 1537 -1141 l119 -89 26 17 c36 24 1381 1035 1464 1101 l67 54 0
167 0 167 -55 43 c-30 23 -58 42 -61 42 -3 0 -327 -241 -719 -536 -418 -314
-719 -533 -725 -529 -7 4 -58 42 -113 84 -555 420 -1307 981 -1314 981 -4 0
-80 -55 -168 -121z"/>
</g>
</svg>
