<?xml version="1.0" standalone="no"?>
<!DOCTYPE svg PUBLIC "-//W3C//DTD SVG 20010904//EN"
 "http://www.w3.org/TR/2001/REC-SVG-20010904/DTD/svg10.dtd">
<svg version="1.0" xmlns="http://www.w3.org/2000/svg"
 width="351.000000pt" height="351.000000pt" viewBox="0 0 351.000000 351.000000"
 preserveAspectRatio="xMidYMid meet">

<g transform="translate(0.000000,351.000000) scale(0.100000,-0.100000)"
fill="#000000" stroke="none">
<path d="M0 1755 l0 -1755 1755 0 1755 0 0 1755 0 1755 -1755 0 -1755 0 0
-1755z m2101 1373 c92 -68 167 -126 166 -130 -5 -18 -380 -289 -392 -284 -8 3
-65 43 -127 89 -62 45 -135 98 -161 117 l-48 34 33 25 c69 55 353 271 356 271
2 0 80 -55 173 -122z m653 -326 c85 -63 160 -120 166 -127 9 -11 -92 -91 -504
-401 -293 -219 -522 -384 -529 -381 -19 7 -331 237 -335 247 -3 7 121 100 683
517 105 78 226 168 270 201 44 33 83 60 87 59 4 -1 77 -53 162 -115z m-1476
-790 c332 -249 606 -452 610 -450 7 3 316 234 1060 791 189 141 346 257 350
257 4 -1 32 -20 62 -44 l55 -42 -2 -170 c-2 -149 -5 -170 -20 -181 -10 -7
-353 -265 -761 -573 l-744 -560 -31 22 c-31 22 -371 274 -1029 766 -183 137
-422 314 -530 395 -109 81 -198 150 -198 154 1 5 78 65 172 134 l172 126 115
-86 c64 -47 387 -290 719 -539z m-235 -684 c331 -249 648 -487 704 -529 55
-42 106 -80 113 -84 6 -4 307 215 725 529 392 295 716 536 719 536 3 0 31 -19
61 -42 l55 -43 0 -167 0 -167 -67 -54 c-83 -66 -1428 -1077 -1464 -1101 l-26
-17 -119 89 c-337 251 -1426 1060 -1537 1141 -106 77 -126 96 -115 107 24 24
333 253 341 254 5 0 280 -203 610 -452z"/>
</g>
</svg>
